<svg viewBox="0 0 60 60" xmlns="http://www.w3.org/2000/svg"><title>Page 1</title><path d="M58.438 50.47C59.48 51.614 60 52.97 60 54.53s-.52 2.864-1.562 3.906C57.396 59.478 56.094 60 54.532 60s-2.917-.52-4.063-1.562L30 37.968 9.53 58.44C8.387 59.478 7.084 60 5.626 60s-2.76-.52-3.906-1.562C.572 57.396 0 56.094 0 54.53s.573-2.915 1.72-4.06L22.03 30 1.72 9.53C.572 8.386 0 7.03 0 5.47s.573-2.864 1.72-3.906C2.864.522 4.166 0 5.624 0s2.76.52 3.906 1.562L30 22.032 50.47 1.56C51.614.522 52.97 0 54.53 0s2.864.52 3.906 1.562S60 3.906 60 5.47s-.52 2.915-1.562 4.06L37.968 30l20.47 20.47z" fill="#4ab0d1" fill-rule="evenodd"/></svg>