<svg width="22" height="22" viewBox="0 0 22 22" fill="none" xmlns="http://www.w3.org/2000/svg">
<path d="M17.4167 11.9167V16.5C17.4167 17.0042 17.0042 17.4167 16.5 17.4167H5.5C4.99583 17.4167 4.58333 17.0042 4.58333 16.5V11.9167C4.58333 11.4125 4.17083 11 3.66667 11C3.1625 11 2.75 11.4125 2.75 11.9167V17.4167C2.75 18.425 3.575 19.25 4.58333 19.25H17.4167C18.425 19.25 19.25 18.425 19.25 17.4167V11.9167C19.25 11.4125 18.8375 11 18.3333 11C17.8292 11 17.4167 11.4125 17.4167 11.9167Z" fill="white"/>
<path d="M8.35083 9.89082L10.0742 11.6142L10.0742 3.66665C10.0742 3.16249 10.4867 2.74999 10.9908 2.74999C11.495 2.74999 11.9075 3.16249 11.9075 3.66665L11.9075 11.6142L13.64 9.89082C13.9975 9.53332 14.575 9.53332 14.9325 9.89082C15.29 10.2483 15.29 10.8258 14.9325 11.1833L11.6417 14.4742C11.2842 14.8317 10.7067 14.8317 10.3492 14.4742L7.05833 11.1833C6.70083 10.8258 6.70083 10.2483 7.05833 9.89082C7.41583 9.53332 7.99333 9.53332 8.35083 9.89082Z" fill="white"/>
</svg>
