<svg width="28" height="28" viewBox="0 0 28 28" fill="none" xmlns="http://www.w3.org/2000/svg">
<path d="M12.5465 14.082C12.1668 13.726 11.5514 13.726 11.1718 14.082L8.83846 16.2695C8.45871 16.6256 8.45871 17.2038 8.83846 17.5597L11.1718 19.7472C11.3653 19.929 11.6132 20.0156 11.8611 20.0156C12.109 20.0156 12.3584 19.9273 12.5485 19.7493C12.9282 19.3933 12.9282 18.8151 12.5485 18.4591L10.9035 16.9167L12.5494 15.3745C12.8868 15.0163 12.8868 14.4421 12.5465 14.082ZM22.4243 6.58894L18.7964 3.18738C18.2097 2.6406 17.4173 2.33334 16.5958 2.33334H7.77777C6.05936 2.33334 4.66666 3.63901 4.66666 5.25001L4.66697 22.75C4.66697 24.3606 6.05968 25.6667 7.77808 25.6667H20.2222C21.9333 25.6667 23.3333 24.3542 23.3333 22.75V8.64975C23.3333 7.87957 23.0076 7.13673 22.4243 6.58894ZM21 22.75C21 23.1527 20.6517 23.4792 20.2222 23.4792H7.77874C7.34911 23.4792 7.00096 23.1527 7.00096 22.75L6.99999 5.25593C6.99999 4.85325 7.34824 4.52677 7.77777 4.52677H15.5555V8.16668C15.5555 8.97195 16.2521 9.62501 17.1111 9.62501H20.9562V22.75H21ZM15.4535 14.082C15.0737 14.4381 15.0737 15.0163 15.4535 15.3722L17.0965 16.9167L15.4505 18.4589C15.0708 18.8149 15.0708 19.3931 15.4505 19.749C15.643 19.929 15.891 20.0156 16.1389 20.0156C16.3868 20.0156 16.6362 19.9273 16.8262 19.7493L19.1596 17.5618C19.5393 17.2058 19.5393 16.6276 19.1596 16.2716L16.8262 14.0841C16.4451 13.7266 15.8326 13.7266 15.4535 14.082Z" fill="#343B45"/>
</svg>
