<svg id="Capa_1" data-name="Capa 1" xmlns="http://www.w3.org/2000/svg" viewBox="0 0 58 58"><defs><style>.cls-1{fill:#fff;}</style></defs><title>Tavola disegno 1</title><path class="cls-1" d="M54.94,20.89a1.57,1.57,0,0,0-1.85-1l-.29.07A25.1,25.1,0,0,0,39,6.17l.07-.3a1.56,1.56,0,0,0-1-1.85,27,27,0,0,0-17,0,1.57,1.57,0,0,0-1,1.85l.07.3A25.18,25.18,0,0,0,6.36,19.94l-.29-.07a1.58,1.58,0,0,0-1.86,1,27,27,0,0,0,0,17A1.58,1.58,0,0,0,5.7,39a1.64,1.64,0,0,0,.37-.05l.29-.07a25.14,25.14,0,0,0,13.58,13.7l-.07.3a1.57,1.57,0,0,0,1,1.85,27,27,0,0,0,17.39,0,1.56,1.56,0,0,0,1-1.85l-.07-.3A25.17,25.17,0,0,0,52.8,38.84l.29.07a1.5,1.5,0,0,0,.37.05,1.56,1.56,0,0,0,1.48-1.08,27,27,0,0,0,0-17ZM52.38,35.52l-.21-.05h0l-9-2.17a14.17,14.17,0,0,0,0-7.82L52.2,23.3h0l.18,0a23.89,23.89,0,0,1,0,12.26Zm-22.8,4.83a11,11,0,1,1,11-11,11,11,0,0,1-11,11ZM6.77,35.51a24.1,24.1,0,0,1,0-12.24L16,25.49a14.1,14.1,0,0,0,0,7.8ZM49.71,20.68,41.9,22.55a14.2,14.2,0,0,0-5.49-5.49l1.87-7.81A22.15,22.15,0,0,1,49.71,20.68ZM29.58,5.79a23.67,23.67,0,0,1,6.12.79l-.05.21h0l-2.17,9.05a14,14,0,0,0-3.9-.55,14.28,14.28,0,0,0-3.89.54h0L23.46,6.58a23.67,23.67,0,0,1,6.12-.79Zm-8.7,3.46,1.87,7.81a14.12,14.12,0,0,0-5.5,5.5l-7.8-1.88A22.15,22.15,0,0,1,20.88,9.25ZM14,44.83a22,22,0,0,1-4.55-6.74l7.8-1.87a14.24,14.24,0,0,0,5.31,5.39l-1.88,7.83A22.43,22.43,0,0,1,14,44.83ZM29.58,53a24,24,0,0,1-6.32-.85l2.22-9.26h0a14.08,14.08,0,0,0,8.2,0l2.17,9h0l0,.21a24,24,0,0,1-6.32.85Zm15.57-8.16a22.12,22.12,0,0,1-6.68,4.61L36.6,41.61a14.12,14.12,0,0,0,5.3-5.38l7.81,1.87a22,22,0,0,1-4.56,6.73Z"/></svg>