<?xml version="1.0" encoding="utf-8"?>
<!-- Generator: Adobe Illustrator 23.0.6, SVG Export Plug-In . SVG Version: 6.00 Build 0)  -->
<svg version="1.1" id="Capa_1" xmlns="http://www.w3.org/2000/svg" xmlns:xlink="http://www.w3.org/1999/xlink" x="0px" y="0px"
	 viewBox="0 0 58 58" style="enable-background:new 0 0 58 58;" xml:space="preserve">
<style type="text/css">
	.st0{fill:#8a3b8f;}
</style>
<title>Tavola disegno 1</title>
<g>
	<path class="st0" d="M50.3,13.1L49,11.8l-9-9c0,0,0,0,0,0L39.2,2c-0.3-0.3-0.8-0.5-1.3-0.5H10.4C9.2,1.5,8,2.4,8,4.3v34.3v15.7v0.4
		c0,0.8,0.8,1.6,1.7,1.8c0,0,0.1,0,0.1,0c0.1,0,0.3,0,0.5,0h38.1c0.2,0,0.3,0,0.5,0c0,0,0.1,0,0.1,0c0.9-0.2,1.7-1,1.7-1.8v-0.4
		V38.6V14.8C50.8,14.1,50.7,13.5,50.3,13.1z M39.4,4.9l8,8h-8V4.9z M10.4,54.8c-0.1,0-0.1,0-0.2,0c-0.1-0.1-0.3-0.2-0.3-0.4V40.5h39
		v13.8c0,0.2-0.1,0.3-0.3,0.4c-0.1,0-0.1,0-0.2,0H10.4z M9.9,38.6V4.3c0-0.2,0-0.9,0.4-0.9h27.2c0,0.1-0.1,0.2-0.1,0.4v11h11
		c0.1,0,0.3,0,0.4-0.1c0,0,0,0,0,0v23.8H9.9z"/>
	<polygon class="st0" points="17.8,47.5 13.7,47.5 13.7,43.3 12.1,43.3 12.1,52.9 13.7,52.9 13.7,48.5 17.8,48.5 17.8,52.9 
		19.4,52.9 19.4,43.3 17.8,43.3 	"/>
	<polygon class="st0" points="21.3,44.3 24.1,44.3 24.1,52.9 25.7,52.9 25.7,44.3 28.6,44.3 28.6,43.3 21.3,43.3 	"/>
	<polygon class="st0" points="34.9,49.8 32,43.3 30.4,43.3 30.4,52.9 32,52.9 32,46.3 34.2,51.6 35.5,51.6 37.7,46.3 37.7,52.9 
		39.3,52.9 39.3,43.3 37.7,43.3 	"/>
	<polygon class="st0" points="43.3,43.3 41.7,43.3 41.7,52.9 47.7,52.9 47.7,51.7 43.3,51.7 	"/>
	<path class="st0" d="M23.9,19c-0.4-0.4-1-0.4-1.3,0l-5.7,5.7c-0.4,0.4-0.4,1,0,1.3l5.7,5.7c0.2,0.2,0.4,0.3,0.7,0.3
		s0.5-0.1,0.7-0.3c0.4-0.4,0.4-1,0-1.3l-5-5l5-5C24.2,19.9,24.2,19.3,23.9,19z"/>
	<path class="st0" d="M36.3,19c-0.4-0.4-1-0.4-1.3,0s-0.4,1,0,1.3l5,5l-5,5c-0.4,0.4-0.4,1,0,1.3c0.2,0.2,0.4,0.3,0.7,0.3
		s0.5-0.1,0.7-0.3L42,26c0.4-0.4,0.4-1,0-1.3L36.3,19z"/>
</g>
</svg>
