<svg viewBox="0 0 80 120" xmlns="http://www.w3.org/2000/svg"><path d="m5.1 109.57v-20.31a2.09 2.09 0 0 1 2.32-2.26h10c4.56 0 7.1 2.84 7.1 6.35a5.6 5.6 0 0 1 -4.31 5.65 6.14 6.14 0 0 1 4.79 6.16c0 3.85-2.58 6.73-7.26 6.73h-10.33a2.09 2.09 0 0 1 -2.31-2.32zm11.45-12.31c2.24 0 3.51-1.34 3.51-3.21a3.17 3.17 0 0 0 -3.51-3.25h-7.08v6.46zm.18 10.74c2.4 0 3.82-1.31 3.82-3.47 0-1.87-1.31-3.44-3.82-3.44h-7.26v6.91z" fill="#343b45"/><path d="m17.78 112.13h-10.36a2.33 2.33 0 0 1 -2.57-2.56v-20.31a2.33 2.33 0 0 1 2.57-2.56h10c4.39 0 7.35 2.65 7.35 6.6a5.87 5.87 0 0 1 -3.62 5.7 6.54 6.54 0 0 1 4.14 6.16 6.78 6.78 0 0 1 -1.95 5 7.73 7.73 0 0 1 -5.56 1.97zm-10.36-24.93a1.84 1.84 0 0 0 -2.07 2.06v20.31a1.84 1.84 0 0 0 2.07 2.06h10.36a7.26 7.26 0 0 0 5.22-1.84 6.33 6.33 0 0 0 1.8-4.63 5.87 5.87 0 0 0 -4.62-5.89l-1.35-.21 1.34-.28a5.33 5.33 0 0 0 4.13-5.48c0-3.65-2.75-6.1-6.85-6.1zm9.31 21.08h-7.51v-7.41h7.51c2.81 0 4.07 1.85 4.07 3.69 0 2.3-1.56 3.72-4.07 3.72zm-7-.5h7c2.24 0 3.57-1.2 3.57-3.22s-1.4-3.19-3.57-3.19h-7zm6.83-10.27h-7.34v-7h7.33c2.29 0 3.76 1.37 3.76 3.5s-1.47 3.5-3.76 3.5zm-6.84-.51h6.83c2 0 3.26-1.13 3.26-3a2.94 2.94 0 0 0 -3.26-3h-6.83z" fill="#353b45"/><path d="m30.76 109.57v-20.31a2.08 2.08 0 0 1 2.31-2.26h14.6a1.93 1.93 0 1 1 0 3.85h-12.54v6.46h12.28a1.93 1.93 0 1 1 0 3.86h-12.28v6.83h12.54a1.93 1.93 0 1 1 0 3.86h-14.6a2.09 2.09 0 0 1 -2.31-2.29z" fill="#343b45"/><path d="m47.67 112.14h-14.6a2.33 2.33 0 0 1 -2.56-2.57v-20.31a2.33 2.33 0 0 1 2.56-2.56h14.6a2.18 2.18 0 1 1 0 4.35h-12.29v6h12a2.18 2.18 0 1 1 0 4.36h-12v6.41h12.29a2.18 2.18 0 1 1 0 4.36zm-16.91-2.57h.24a1.85 1.85 0 0 0 2.06 2.07h14.6a1.68 1.68 0 1 0 0-3.36h-12.78v-7.41h12.53a1.68 1.68 0 1 0 0-3.36h-12.53v-7h12.79a1.68 1.68 0 1 0 0-3.35h-14.6a1.84 1.84 0 0 0 -2.07 2.1v20.31z" fill="#353b45"/><path d="m55.88 109.57v-20.31a2.08 2.08 0 0 1 2.31-2.26h14.6a1.93 1.93 0 1 1 0 3.85h-12.54v6.47h12.28a1.93 1.93 0 1 1 0 3.85h-12.28v6.83h12.54a1.93 1.93 0 1 1 0 3.86h-14.6a2.09 2.09 0 0 1 -2.31-2.29z" fill="#343b45"/><path d="m72.79 112.14h-14.6a2.33 2.33 0 0 1 -2.56-2.57v-20.31a2.33 2.33 0 0 1 2.56-2.56h14.6a2.18 2.18 0 1 1 0 4.35h-12.29v6h12a2.18 2.18 0 1 1 0 4.35h-12v6.41h12.29a2.18 2.18 0 1 1 0 4.36zm-14.6-24.94a1.84 1.84 0 0 0 -2.06 2.06v20.31a1.85 1.85 0 0 0 2.06 2.07h14.6a1.68 1.68 0 1 0 0-3.36h-12.79v-7.41h12.53a1.68 1.68 0 1 0 0-3.35h-12.53v-7h12.79a1.68 1.68 0 1 0 0-3.35z" fill="#353b45"/><path d="m58.36 34.1v-15.76a4.53 4.53 0 0 0 -.61-2.28 4.7 4.7 0 0 0 -1.62-1.67l-13.74-7.86a4.25 4.25 0 0 0 -2.28-.66 4.15 4.15 0 0 0 -2.25.66l-13.7 7.86a4.6 4.6 0 0 0 -1.62 1.61h-.06a4.7 4.7 0 0 0 -.57 2.28v15.82a6.81 6.81 0 0 0 .09.9 3.64 3.64 0 0 0 -1 .44l-13.67 7.88a4.77 4.77 0 0 0 -1.65 1.68 4.35 4.35 0 0 0 -.63 2.28v15.72a4.35 4.35 0 0 0 .63 2.28v.09a4.7 4.7 0 0 0 1.65 1.63l13.67 7.9a4.53 4.53 0 0 0 2.28.61 4.47 4.47 0 0 0 2.28-.61l13.71-7.9a5 5 0 0 0 .65-.48c.24.18.47.34.7.48l13.67 7.9a4.53 4.53 0 0 0 2.28.61 4.58 4.58 0 0 0 2.28-.61l13.71-7.9a4.17 4.17 0 0 0 1.61-1.67 4.43 4.43 0 0 0 .61-2.33v-15.72a4.44 4.44 0 0 0 -.61-2.28 4.67 4.67 0 0 0 -1.61-1.67l-13.71-7.86a1.65 1.65 0 0 0 -.61-.3 4.88 4.88 0 0 0 .12-1.07m13.1 12.47a1.46 1.46 0 0 1 .17.71v15.72a1.45 1.45 0 0 1 -.17.7 1.12 1.12 0 0 1 -.5.53l-13.69 7.95a1.19 1.19 0 0 1 -.49.17v-15.89a2.75 2.75 0 0 0 -1.58-2.59l-13.61-7.17a.12.12 0 0 0 .09-.13 2.18 2.18 0 0 1 .52-.57.71.71 0 0 0 .19-.08l13.48-7.77a1.23 1.23 0 0 1 .63-.19 1.2 1.2 0 0 1 .65.19l13.85 7.85a1.67 1.67 0 0 1 .5.53m-45.71-29.43 13.65-7.85a1.45 1.45 0 0 1 .67-.25 1.1 1.1 0 0 1 .64.19l13.75 7.91a1.93 1.93 0 0 1 .49.54 1.18 1.18 0 0 1 .21.7v15.76a1.18 1.18 0 0 1 -.21.7 1.93 1.93 0 0 1 -.49.54l-13.69 7.85a2.19 2.19 0 0 1 -.46.23v-15.9a2.8 2.8 0 0 0 -.43-1.5 2.69 2.69 0 0 0 -1.14-1.1l-13.62-7.15a.34.34 0 0 0 .1-.13 2.26 2.26 0 0 1 .53-.54m-2.51 20.9a1.29 1.29 0 0 1 .67.19l13.74 7.81a1.85 1.85 0 0 1 .48.53 1.46 1.46 0 0 1 .17.71v15.85a1.34 1.34 0 0 1 -.17.65 1.19 1.19 0 0 1 -.48.53l-13.69 7.91a1.19 1.19 0 0 1 -.49.17v-15.89a3.12 3.12 0 0 0 -.38-1.5 2.94 2.94 0 0 0 -1.2-1.09l-13.63-7.17a.14.14 0 0 0 .1-.13 2.05 2.05 0 0 1 .53-.57h.07l13.61-7.85a1.18 1.18 0 0 1 .67-.15z" fill="#189dc7"/></svg>