<svg id="Capa_1" data-name="Capa 1" xmlns="http://www.w3.org/2000/svg" viewBox="0 0 58 58"><defs><style>.cls-1{fill:#8a3b8f;}</style></defs><title>Tavola disegno 1</title><path class="cls-1" d="M51,12.19l-.77-.77L40.08,1.32,39.31.55A1.88,1.88,0,0,0,38,0H9C7.78,0,6.5.92,6.5,2.93V56a2.29,2.29,0,0,0,1.84,1.91l.15,0A2.42,2.42,0,0,0,9,58H49a2.42,2.42,0,0,0,.47,0l.15,0A2.29,2.29,0,0,0,51.5,56V14A2.28,2.28,0,0,0,51,12.19Zm-3-.19H39.5V3.56ZM9,56a.59.59,0,0,1-.19,0,.45.45,0,0,1-.27-.41V41h41V55.54a.46.46,0,0,1-.26.41.73.73,0,0,1-.2,0ZM8.5,39V2.93c0-.22,0-.93.46-.93h28.6a1.76,1.76,0,0,0-.06.39V14H49.11a1.76,1.76,0,0,0,.39-.06V39Z"/><path class="cls-1" d="M22,44.74a3.34,3.34,0,0,0-1.13-.61,4,4,0,0,0-1.27-.21h-2.9V54h1.65V50.36H19.6a4.2,4.2,0,0,0,1.45-.23,3.05,3.05,0,0,0,1.12-.66,3,3,0,0,0,.73-1A3.66,3.66,0,0,0,23.16,47a2.72,2.72,0,0,0-.31-1.31A3.21,3.21,0,0,0,22,44.74Zm-.62,3.33a1.54,1.54,0,0,1-.4.65,1.41,1.41,0,0,1-.54.34,2,2,0,0,1-.59.1h-1.5v-4h1.22a2.15,2.15,0,0,1,1,.2,1.6,1.6,0,0,1,.59.49,1.53,1.53,0,0,1,.28.61,2.59,2.59,0,0,1,.07.57A3.07,3.07,0,0,1,21.42,48.07Z"/><path class="cls-1" d="M32,45.4a4.37,4.37,0,0,0-1.6-1.07,5.69,5.69,0,0,0-2.23-.41h-3V54H28.9c.12,0,.32,0,.59,0a3.7,3.7,0,0,0,.87-.22,4.25,4.25,0,0,0,1-.51,3.44,3.44,0,0,0,.92-.94A5.14,5.14,0,0,0,33,50.81a7.36,7.36,0,0,0,.27-2.13,5.07,5.07,0,0,0-.32-1.76A4.33,4.33,0,0,0,32,45.4Zm-1.19,6.33a2.73,2.73,0,0,1-2.41,1.07H26.72V45.17h1a5.19,5.19,0,0,1,1.92.3,3.08,3.08,0,0,1,1.16.81,2.75,2.75,0,0,1,.59,1.12,5.19,5.19,0,0,1,.15,1.24A5.42,5.42,0,0,1,30.76,51.73Z"/><polygon class="cls-1" points="35.6 54 37.27 54 37.27 49.46 41.48 49.46 41.48 48.34 37.27 48.34 37.27 45.17 41.9 45.17 41.9 43.92 35.6 43.92 35.6 54"/><path class="cls-1" d="M38.43,23a19.19,19.19,0,0,0-3.36.36A32,32,0,0,1,30,15.76c1.34-5.63.67-6.43.37-6.81s-.75-1-1.26-1a4.64,4.64,0,0,0-1,.17,1.91,1.91,0,0,0-1.14,1.21c-.7,1.66.27,4.47,1.26,6.65a67.43,67.43,0,0,1-3.78,10.75c-3.79,1.73-5.81,3.44-6,5.06A2.43,2.43,0,0,0,19.55,34a1.61,1.61,0,0,0,1,.32h0c.88,0,1.76-.67,2.79-2.11A28.55,28.55,0,0,0,25.68,28a47.75,47.75,0,0,1,8.83-2.82c1.58,1.52,3,2.29,4.21,2.29a2.69,2.69,0,0,0,2.22-1.19,2,2,0,0,0,.39-2.16C40.94,23.33,40,23,38.43,23ZM20.54,32.63c-.47-.36-.45-.6-.44-.69.07-.55.94-1.54,3.07-2.74C21.56,32.19,20.68,32.59,20.54,32.63Zm8.2-22.92s1,1.1.09,3.22A2.4,2.4,0,0,1,28.74,9.71Zm-2.07,16a71,71,0,0,0,2.67-7.57,34.77,34.77,0,0,0,3.83,5.55A49.73,49.73,0,0,0,26.67,25.74Zm12.9-.48a1.51,1.51,0,0,1-1.21.44c-.53,0-.73-.32-1.55-.94a13.82,13.82,0,0,1,1.81-.11c.89,0,1.06.13,1.18.19A1.38,1.38,0,0,1,39.57,25.26Z"/></svg>