<svg width="28" height="28" viewBox="0 0 28 28" fill="none" xmlns="http://www.w3.org/2000/svg">
<rect x="6.79999" y="18.8" width="12" height="2.4" rx="1.2" fill="#343B45"/>
<rect x="6.79999" y="14" width="12" height="2.4" rx="1.2" fill="#343B45"/>
<rect x="6.79999" y="9.20001" width="3.6" height="2.4" rx="1.2" fill="#343B45"/>
<path d="M21.1976 17.5994V22.3997C21.1976 23.0598 20.6577 23.5998 19.9978 23.5998H5.59955C4.93963 23.5998 4.3997 23.0598 4.3997 22.3997V7.99863C4.3997 7.33858 4.93963 6.79853 5.59955 6.79853H9.2231C9.88302 6.79853 10.4229 6.25849 10.4229 5.59844C10.4229 4.93839 9.88302 4.39835 9.2231 4.39835H4.3997C3.07987 4.39835 2 5.47843 2 6.79853V23.5998C2 24.9199 3.07987 26 4.3997 26H21.1976C22.5174 26 23.5973 24.9199 23.5973 23.5998V17.5994C23.5973 16.9393 23.0574 16.3993 22.3975 16.3993C21.7375 16.3993 21.1976 16.9393 21.1976 17.5994ZM22.7574 10.2668C23.3333 9.34273 23.6573 8.26265 23.5853 7.07456C23.4293 4.49436 21.3776 2.31019 18.8219 2.03417C15.5583 1.67414 12.7987 4.20634 12.7987 7.39858C12.7987 10.3868 15.2104 12.799 18.186 12.799C19.2418 12.799 20.2257 12.487 21.0536 11.9589L23.9453 14.8512C24.4132 15.3192 25.1811 15.3192 25.649 14.8512C26.117 14.3831 26.117 13.6151 25.649 13.147L22.7574 10.2668ZM18.198 10.3988C16.5422 10.3988 15.1984 9.05471 15.1984 7.39858C15.1984 5.74245 16.5422 4.39835 18.198 4.39835C19.8538 4.39835 21.1976 5.74245 21.1976 7.39858C21.1976 9.05471 19.8538 10.3988 18.198 10.3988Z" fill="#343B45"/>
</svg>
