<svg id="Capa_1" data-name="Capa 1" xmlns="http://www.w3.org/2000/svg" viewBox="0 0 58 58"><defs><style>.cls-1{fill:#8a3b8f;}</style></defs><title>Tavola disegno 1</title><path class="cls-1" d="M56.25,2.88a1.06,1.06,0,0,0,0-.19,1.08,1.08,0,0,0-.08-.19.49.49,0,0,0,0-.11L56,2.34a.93.93,0,0,0-.13-.15,1.07,1.07,0,0,0-.16-.14l0,0-.11,0a.77.77,0,0,0-.19-.08l-.18,0H55l-.19,0a.5.5,0,0,0-.12,0L2.33,19.75a1.19,1.19,0,0,0-.8,1.1A1.17,1.17,0,0,0,2.29,22l24.47,9.41L37.33,55.86a1.19,1.19,0,0,0,1.09.72h.06a1.19,1.19,0,0,0,1.07-.83L56.22,3.38s0-.07,0-.11a.69.69,0,0,0,0-.2A1.21,1.21,0,0,0,56.25,2.88Zm-50,18.06L50.62,5.8,27.35,29.06ZM38.25,52,29.06,30.72l23.4-23.4Z"/><path class="cls-1" d="M20.22,37.88a1.2,1.2,0,0,0-1.68,0L1.88,54.54a1.19,1.19,0,1,0,1.68,1.69L20.22,39.57A1.19,1.19,0,0,0,20.22,37.88Z"/><path class="cls-1" d="M23.3,46.21,15,54.54a1.19,1.19,0,1,0,1.68,1.69L25,47.9a1.19,1.19,0,0,0-1.68-1.69Z"/><path class="cls-1" d="M2.72,43.49a1.2,1.2,0,0,0,.84-.35l8.33-8.33a1.21,1.21,0,0,0,0-1.69,1.2,1.2,0,0,0-1.68,0L1.88,41.45a1.2,1.2,0,0,0,.84,2Z"/></svg>