<svg id="Capa_1" data-name="Capa 1" xmlns="http://www.w3.org/2000/svg" viewBox="0 0 58 58"><defs><style>.cls-1{fill:#8a3b8f;}.cls-2{fill:#fff;}</style></defs><title>Tavola disegno 1</title><path class="cls-1" d="M5.62.4H54.39a3.25,3.25,0,0,1,3.24,3.24V52.41"/><circle class="cls-2" cx="31.93" cy="25.63" r="15.39"/><path class="cls-1" d="M31.93,42A16.39,16.39,0,1,1,48.32,25.63,16.41,16.41,0,0,1,31.93,42Zm0-30.78A14.39,14.39,0,1,0,46.32,25.63,14.4,14.4,0,0,0,31.93,11.24Z"/><path class="cls-1" d="M41.33,21.68a.75.75,0,0,0-.82-.11l-4.13,2L32.5,19.13a.75.75,0,0,0-1.14,0l-3.88,4.44-4.13-2a.75.75,0,0,0-.82.11.74.74,0,0,0-.23.79l2.87,9.38a.75.75,0,0,0,.72.53H38a.75.75,0,0,0,.72-.53l2.87-9.38A.74.74,0,0,0,41.33,21.68Zm-3.92,9.2h-11l-2.21-7.2,3.1,1.5a.75.75,0,0,0,.9-.19l3.69-4.22L35.61,25a.78.78,0,0,0,.91.19l3.09-1.5Z"/></svg>