<svg id="Capa_1" data-name="Capa 1" xmlns="http://www.w3.org/2000/svg" viewBox="0 0 58 58"><defs><style>.cls-1{fill:#009cc7;}.cls-2{fill:#fff;}</style></defs><title>Tavola disegno 1</title><path class="cls-1" d="M5.62.4H54.39a3.25,3.25,0,0,1,3.24,3.24V52.41"/><circle class="cls-2" cx="31.62" cy="26.08" r="15.39"/><path class="cls-1" d="M31.62,42.47A16.39,16.39,0,1,1,48,26.08,16.41,16.41,0,0,1,31.62,42.47Zm0-30.78A14.39,14.39,0,1,0,46,26.08,14.41,14.41,0,0,0,31.62,11.69Z"/><path class="cls-1" d="M40.88,21.92,29.56,33.24a.25.25,0,0,1-.36,0l-6.43-6.43a.25.25,0,0,1,0-.36l1.56-1.56a.25.25,0,0,1,.36,0l4.69,4.69L39,20a.25.25,0,0,1,.36,0l1.56,1.56A.25.25,0,0,1,40.88,21.92Z"/></svg>