<svg id="Capa_1" data-name="Capa 1" xmlns="http://www.w3.org/2000/svg" viewBox="0 0 58 58"><defs><style>.cls-1{fill:#8a3b8f;}</style></defs><title>Tavola disegno 1</title><path class="cls-1" d="M44.55,29.2l-5.08-3.9a1.08,1.08,0,0,0-.63-.21H15.47a1,1,0,0,0-1,1V55.66a1,1,0,0,0,1,1H43.92a1,1,0,0,0,1-1V30A1,1,0,0,0,44.55,29.2ZM24.62,27.06H36.81V34H24.62V27.06ZM38.84,54.67H20.55V44.81H38.84Zm4.07,0h-2V43.83a1,1,0,0,0-1-1H19.53a1,1,0,0,0-1,1V54.67h-2V27.06h6.09V35a1,1,0,0,0,1,1H37.83a1,1,0,0,0,1-1V27.33l4.07,3.12Z"/><path class="cls-1" d="M33.76,28.05a1,1,0,0,0-1,1v2a1,1,0,0,0,2,0V29A1,1,0,0,0,33.76,28.05Z"/><path class="cls-1" d="M24.62,48.76H34.78a1,1,0,1,0,0-2H24.62a1,1,0,1,0,0,2Z"/><path class="cls-1" d="M24.62,52.7H34.78a1,1,0,1,0,0-2H24.62a1,1,0,1,0,0,2Z"/><path class="cls-1" d="M14.53,34.09c-5.19,0-9.94-4.23-9.94-9.42a10.33,10.33,0,0,1,5.59-8.91l.5-.24V15c0-.11,0-.21,0-.32v-.33a1.7,1.7,0,0,1,0-.22A6.09,6.09,0,0,1,16.76,8a7.18,7.18,0,0,1,.8.06l.2,0a5.17,5.17,0,0,1,.68.16l.1,0a6.3,6.3,0,0,1,.72.28l.18.09a4.53,4.53,0,0,1,.61.34,6.08,6.08,0,0,1,2.79,5.11.87.87,0,1,0,1.74,0,7.77,7.77,0,0,0-2.78-6A13.75,13.75,0,0,1,32.47,2.81,13.13,13.13,0,0,1,45.38,14.88a16.31,16.31,0,0,0-3.55.11A.86.86,0,0,0,42,16.71h.13a16.43,16.43,0,0,1,4.07,0,8.91,8.91,0,0,1,7.09,8.68,8.72,8.72,0,0,1-8.71,8.71l.17.25c-.49,0,.15.2-.21.51-1.61,1.39,2,1.62.1.83l-.06.15A10.46,10.46,0,0,0,55,25.38a10.7,10.7,0,0,0-7.84-10.24A14.88,14.88,0,0,0,32.47,1.07,15.31,15.31,0,0,0,20.36,7.16l-.2-.09-.53-.23-.3-.11-.53-.17-.3-.07c-.2,0-.4-.08-.6-.11l-.26,0a8.49,8.49,0,0,0-.88,0,7.82,7.82,0,0,0-7.82,7.82c0,.11,0,.22,0,.33A12,12,0,0,0,2.86,24.67c0,6.15,5.52,11.16,11.67,11.16"/></svg>