<svg width="22" height="22" viewBox="0 0 22 22" fill="none" xmlns="http://www.w3.org/2000/svg">
<path d="M11.4583 4.58334C14.3779 4.58334 16.8082 6.65004 17.3537 9.40297C19.4391 9.5466 21.0833 11.2542 21.0833 13.3608C21.0833 15.5631 19.2867 17.3506 17.0729 17.3506H14.1797V15.7547H17.0729C18.4044 15.7547 19.4792 14.6854 19.4792 13.3608C19.4792 12.0362 18.4044 10.9669 17.0729 10.9669H15.8698V10.568C15.8698 8.1422 13.8967 6.17925 11.4583 6.17925C9.43709 6.17925 7.7447 7.52778 7.21532 9.37105H6.64584C4.87324 9.37105 3.43751 10.7994 3.43751 12.5629C3.43751 14.3263 4.87324 15.7547 6.64584 15.7547H8.53647V17.3506H6.64584C3.99095 17.3506 1.83334 15.2041 1.83334 12.5629C1.83334 10.0972 3.71022 8.06241 6.12449 7.80706C7.12709 5.89198 9.14032 4.58334 11.4583 4.58334Z" fill="white"/>
<path d="M12.0893 17.4167H10.6269V12.0749L9.69909 13.0066C9.41327 13.2945 8.94836 13.2946 8.66266 13.0066C8.37982 12.7214 8.37982 12.262 8.66266 11.9768L10.8415 9.78665C11.1273 9.4988 11.5923 9.4986 11.8779 9.78665L14.0535 11.9801C14.3363 12.2653 14.3363 12.7247 14.0535 13.0099C13.7677 13.2981 13.2996 13.2981 13.0138 13.0099L12.0893 12.0778V17.4167Z" fill="white"/>
</svg>
