<svg width="28" height="28" viewBox="0 0 28 28" fill="none" xmlns="http://www.w3.org/2000/svg">
<path d="M4.66665 19.8333C4.66665 20.4777 4.14431 21 3.49998 21C2.85565 21 2.33331 20.4777 2.33331 19.8333V4.66665C2.33331 3.38332 3.38331 2.33332 4.66665 2.33332H19.8333C20.4776 2.33332 21 2.85566 21 3.49999C21 4.14432 20.4776 4.66665 19.8333 4.66665H5.83331C5.18898 4.66665 4.66665 5.18899 4.66665 5.83332V19.8333ZM23.3333 25.6667H9.33331C8.04998 25.6667 6.99998 24.6167 6.99998 23.3333V9.33332C6.99998 8.04999 8.04998 6.99999 9.33331 6.99999H23.3333C24.6166 6.99999 25.6666 8.04999 25.6666 9.33332V23.3333C25.6666 24.6167 24.6166 25.6667 23.3333 25.6667ZM23.3333 10.5C23.3333 9.85566 22.811 9.33332 22.1666 9.33332H10.5C9.85565 9.33332 9.33331 9.85566 9.33331 10.5V22.1667C9.33331 22.811 9.85565 23.3333 10.5 23.3333H22.1666C22.811 23.3333 23.3333 22.811 23.3333 22.1667V10.5ZM11.6666 16.3333C11.6666 16.9777 12.189 17.5 12.8333 17.5H19.8333C20.4776 17.5 21 16.9777 21 16.3333C21 15.689 20.4776 15.1667 19.8333 15.1667H12.8333C12.189 15.1667 11.6666 15.689 11.6666 16.3333ZM11.6666 12.8333C11.6666 13.4777 12.189 14 12.8333 14H15.1666C15.811 14 16.3333 13.4777 16.3333 12.8333C16.3333 12.189 15.811 11.6667 15.1666 11.6667H12.8333C12.189 11.6667 11.6666 12.189 11.6666 12.8333ZM11.6666 19.8333C11.6666 20.4777 12.189 21 12.8333 21H19.8333C20.4776 21 21 20.4777 21 19.8333C21 19.189 20.4776 18.6667 19.8333 18.6667H12.8333C12.189 18.6667 11.6666 19.189 11.6666 19.8333Z" fill="#343B45"/>
</svg>
