<svg id="Capa_1" data-name="Capa 1" xmlns="http://www.w3.org/2000/svg" viewBox="0 0 58 58"><defs><style>.cls-1{fill:#009cc7;}</style></defs><title>Tavola disegno 1</title><path class="cls-1" d="M50.61,12.62l-.74-.75h0L40,2.09h0l-.74-.75A1.8,1.8,0,0,0,38,.81H9.92C8.74.81,7.5,1.7,7.5,3.65V55.06a2.21,2.21,0,0,0,1.78,1.85h.15a2,2,0,0,0,.49.09H48.67a1.77,1.77,0,0,0,.46,0h.14a2.23,2.23,0,0,0,1.83-1.94V14.37A2.23,2.23,0,0,0,50.61,12.62ZM39.47,4.26l8.18,8.18H39.47ZM9.92,55.06H9.74a.42.42,0,0,1-.26-.39V40.53H49.2V54.62a.42.42,0,0,1-.26.39.6.6,0,0,1-.19,0ZM9.44,38.59V3.65c0-.21,0-.9.44-.9H37.59a2.32,2.32,0,0,0-.06.38V14.37H48.78a1.65,1.65,0,0,0,.38,0V38.59Z"/><polygon class="cls-1" points="20.16 44.65 25.08 44.65 24.8 44.86 20.16 51.84 20.16 53.13 26.65 53.13 26.65 51.84 21.73 51.84 22 51.62 26.65 44.65 26.65 43.36 20.16 43.36 20.16 44.65"/><rect class="cls-1" x="28.91" y="43.36" width="1.62" height="9.77"/><path class="cls-1" d="M38.08,44.15A3.39,3.39,0,0,0,37,43.56a4,4,0,0,0-1.23-.2H33v9.77h1.6V49.6h1.17a4.24,4.24,0,0,0,1.41-.22,3,3,0,0,0,1.08-.64,3,3,0,0,0,.71-1,3.66,3.66,0,0,0,.25-1.43,2.82,2.82,0,0,0-.3-1.27A3.48,3.48,0,0,0,38.08,44.15Zm-.6,3.23a1.46,1.46,0,0,1-.91,1,2.13,2.13,0,0,1-.57.1H34.54V44.56h1.19a2.16,2.16,0,0,1,1,.19,1.56,1.56,0,0,1,.57.48,1.44,1.44,0,0,1,.27.59,2.08,2.08,0,0,1,.07.55A2.9,2.9,0,0,1,37.48,47.38Z"/><path class="cls-1" d="M29.78,23.09h1.94V21.16H29.78V19.22h1.94V17.28H29.78V15.34h1.94V13.4H29.78V11.47h1.94V9.53H29.78V7.59H27.84V9.53H25.91v1.94h1.93V13.4H25.91v1.94h1.93v1.94H25.91v1.94h1.93v1.94H25.91v1.93h1.93V25H24v4.84a4.85,4.85,0,1,0,9.69,0V25H29.78Zm1.94,6.78a2.91,2.91,0,1,1-5.81,0V27h5.81Z"/><path class="cls-1" d="M27.84,30.84h1.94a1,1,0,1,0,0-1.93H27.84a1,1,0,0,0,0,1.93Z"/></svg>